<?xml version="1.0" standalone="no"?>
<!DOCTYPE svg PUBLIC "-//W3C//DTD SVG 20010904//EN"
 "http://www.w3.org/TR/2001/REC-SVG-20010904/DTD/svg10.dtd">
<svg version="1.0" xmlns="http://www.w3.org/2000/svg"
 width="512.000000pt" height="512.000000pt" viewBox="0 0 512.000000 512.000000"
 preserveAspectRatio="xMidYMid meet">

<g transform="translate(0.000000,512.000000) scale(0.100000,-0.100000)"
fill="#000000" stroke="none">
<path d="M590 4788 c-1 -20 354 -4013 356 -4016 1 -2 365 -104 808 -227 l805
-224 802 223 c501 139 805 228 810 237 6 11 361 3964 359 4007 0 9 -401 12
-1970 12 -1569 0 -1970 -3 -1970 -12z m1972 -756 c71 -29 151 -99 190 -169 34
-60 32 -59 175 -68 187 -11 477 -44 530 -61 130 -41 194 -158 223 -409 5 -49
15 -252 21 -450 19 -616 -10 -995 -96 -1252 -72 -212 -202 -362 -367 -420
-123 -44 -388 -58 -516 -28 -217 51 -341 220 -342 466 0 229 162 380 434 405
105 9 139 1 161 -40 16 -30 17 -46 8 -171 -9 -132 -10 -139 -37 -161 -20 -18
-39 -24 -76 -24 -58 0 -80 -7 -80 -26 0 -11 19 -14 88 -14 194 0 212 28 212
332 l0 173 -99 -3 c-157 -6 -249 28 -393 145 -53 42 -84 61 -86 53 -3 -7 -23
-49 -45 -93 -94 -188 -204 -233 -475 -192 -182 27 -374 95 -450 160 -41 34
-63 77 -96 185 -63 210 -112 540 -123 828 l-6 182 307 0 c331 0 357 4 370 52
3 13 6 159 6 326 l0 303 253 -3 c235 -3 256 -5 309 -26z m-732 -257 l0 -225
-227 0 -228 0 225 225 c124 124 226 225 227 225 2 0 3 -101 3 -225z"/>
<path d="M2942 3011 c-69 -24 -126 -80 -152 -148 -26 -71 -25 -106 4 -140 l24
-28 189 -3 c111 -2 200 1 215 7 15 6 34 24 43 41 15 28 15 36 0 92 -25 97 -80
157 -172 184 -60 18 -87 17 -151 -5z"/>
</g>
</svg>
