<svg version="1.1" id="Layer_1" xmlns="http://www.w3.org/2000/svg" xmlns:xlink="http://www.w3.org/1999/xlink" x="0px" y="0px"
	 width="100%" viewBox="0 0 512 512" enable-background="new 0 0 512 512" xml:space="preserve">
<path fill="#000000" opacity="1.000000" stroke="none" 
	d="
M1.000000,198.000000 
	C1.000000,132.000000 1.000000,66.500000 1.000000,1.000000 
	C171.666672,1.000000 342.333344,1.000000 513.000000,1.000000 
	C513.000000,171.666672 513.000000,342.333344 513.000000,513.000000 
	C342.333344,513.000000 171.666672,513.000000 1.000000,513.000000 
	C1.000000,408.166656 1.000000,303.333344 1.000000,198.000000 
M86.003235,338.354645 
	C87.327858,351.642120 88.789284,364.917725 89.942917,378.220032 
	C91.426895,395.331360 92.631096,412.466797 94.029373,429.585815 
	C94.402328,434.151917 95.415825,437.684418 101.391823,438.437988 
	C107.680786,439.230988 113.753136,441.725800 119.926537,443.454163 
	C160.941223,454.937042 201.934326,466.498505 242.996506,477.809113 
	C249.823730,479.689697 256.443176,482.354095 264.185638,479.648804 
	C276.272369,475.425568 288.810486,472.482941 301.182465,469.089355 
	C339.217407,458.656494 377.265472,448.271576 415.303650,437.850494 
	C417.648041,437.208191 419.249847,436.250122 419.140167,433.131348 
	C419.002167,429.207947 419.723877,425.253418 420.087067,421.313446 
	C421.388824,407.191315 422.717224,393.071594 423.992676,378.947113 
	C424.735443,370.721100 425.355774,362.484009 426.103394,354.258453 
	C427.372284,340.297577 428.738403,326.345398 429.985687,312.382629 
	C430.764771,303.661438 431.327332,294.920776 432.117981,286.200714 
	C433.353699,272.572235 434.746857,258.958069 435.983246,245.329651 
	C436.774048,236.613083 437.335449,227.875748 438.119446,219.158493 
	C439.360138,205.362976 440.736450,191.579666 441.986816,177.784973 
	C442.761719,169.236130 443.344086,160.669769 444.130005,152.122025 
	C445.367889,138.657974 446.761383,125.208153 447.978943,111.742355 
	C448.781830,102.863144 449.281860,93.956192 450.113983,85.080078 
	C451.314209,72.277695 452.728485,59.495510 453.975342,46.697296 
	C454.400726,42.331364 454.596619,37.943069 454.909973,33.381420 
	C322.705719,33.381420 191.008987,33.381420 59.164280,33.381420 
	C59.164280,35.247780 59.039539,36.745850 59.184631,38.217312 
	C60.089634,47.395439 61.154758,56.558731 61.972343,65.744255 
	C62.792702,74.960907 63.302479,84.204971 64.098488,93.424072 
	C65.332878,107.720390 66.710197,122.004311 67.996338,136.296234 
	C68.736145,144.517151 69.363037,152.748444 70.134361,160.966263 
	C71.382530,174.264328 72.783157,187.548401 73.974602,200.851349 
	C74.799835,210.065369 75.290733,219.309128 76.093163,228.525482 
	C77.323036,242.651199 78.718582,256.762421 79.992889,270.884369 
	C80.750053,279.275299 81.360474,287.679565 82.124176,296.069855 
	C83.379211,309.857971 84.705170,323.639679 86.003235,338.354645 
z"/>
<path fill="#3229A2" opacity="1.000000" stroke="none" 
	d="
M86.002235,337.889343 
	C84.705170,323.639679 83.379211,309.857971 82.124176,296.069855 
	C81.360474,287.679565 80.750053,279.275299 79.992889,270.884369 
	C78.718582,256.762421 77.323036,242.651199 76.093163,228.525482 
	C75.290733,219.309128 74.799835,210.065369 73.974602,200.851349 
	C72.783157,187.548401 71.382530,174.264328 70.134361,160.966263 
	C69.363037,152.748444 68.736145,144.517151 67.996338,136.296234 
	C66.710197,122.004311 65.332878,107.720390 64.098488,93.424072 
	C63.302479,84.204971 62.792702,74.960907 61.972343,65.744255 
	C61.154758,56.558731 60.089634,47.395439 59.184631,38.217312 
	C59.039539,36.745850 59.164280,35.247780 59.164280,33.381420 
	C191.008987,33.381420 322.705719,33.381420 454.909973,33.381420 
	C454.596619,37.943069 454.400726,42.331364 453.975342,46.697296 
	C452.728485,59.495510 451.314209,72.277695 450.113983,85.080078 
	C449.281860,93.956192 448.781830,102.863144 447.978943,111.742355 
	C446.761383,125.208153 445.367889,138.657974 444.130005,152.122025 
	C443.344086,160.669769 442.761719,169.236130 441.986816,177.784973 
	C440.736450,191.579666 439.360138,205.362976 438.119446,219.158493 
	C437.335449,227.875748 436.774048,236.613083 435.983246,245.329651 
	C434.746857,258.958069 433.353699,272.572235 432.117981,286.200714 
	C431.327332,294.920776 430.764771,303.661438 429.985687,312.382629 
	C428.738403,326.345398 427.372284,340.297577 426.103394,354.258453 
	C425.355774,362.484009 424.735443,370.721100 423.992676,378.947113 
	C422.717224,393.071594 421.388824,407.191315 420.087067,421.313446 
	C419.723877,425.253418 419.002167,429.207947 419.140167,433.131348 
	C419.249847,436.250122 417.648041,437.208191 415.303650,437.850494 
	C377.265472,448.271576 339.217407,458.656494 301.182465,469.089355 
	C288.810486,472.482941 276.272369,475.425568 264.185638,479.648804 
	C256.443176,482.354095 249.823730,479.689697 242.996506,477.809113 
	C201.934326,466.498505 160.941223,454.937042 119.926537,443.454163 
	C113.753136,441.725800 107.680786,439.230988 101.391823,438.437988 
	C95.415825,437.684418 94.402328,434.151917 94.029373,429.585815 
	C92.631096,412.466797 91.426895,395.331360 89.942917,378.220032 
	C88.789284,364.917725 87.327858,351.642120 86.002235,337.889343 
M256.071472,109.592186 
	C238.232407,104.334023 220.023270,108.418999 201.373505,106.782310 
	C201.373505,109.226913 201.373505,111.007515 201.373505,112.788124 
	C201.373474,128.937759 201.374878,145.087387 201.372955,161.237015 
	C201.371582,172.889343 199.317749,174.981476 187.891357,174.981674 
	C171.408752,174.981964 154.926132,174.981766 138.443527,174.981766 
	C136.694565,174.981766 134.945587,174.981766 132.867935,174.981766 
	C132.947128,210.321426 137.070923,244.321533 146.042786,277.812561 
	C149.299072,289.967987 156.468369,297.239655 167.757828,301.718658 
	C181.797012,307.288635 196.273941,310.677704 211.295227,311.735291 
	C230.574875,313.092682 240.672409,307.014221 248.776733,289.428436 
	C250.129242,286.493561 251.425049,283.532562 253.014435,279.987213 
	C254.812881,281.877563 256.050415,283.178314 257.161255,285.479126 
	C257.103790,295.617981 257.046295,305.756805 256.497070,316.363525 
	C250.090317,320.552765 244.847473,325.774963 242.006653,333.040192 
	C234.462326,352.334442 240.370041,374.158600 257.030182,389.826447 
	C257.020874,406.323547 257.005005,422.820679 257.005310,439.317780 
	C257.005432,446.537689 257.073883,446.671814 263.909821,444.783630 
	C303.714142,433.788910 343.494263,422.706696 383.308685,411.748901 
	C386.798706,410.788361 387.930145,408.971802 388.120148,405.395203 
	C388.595947,396.439514 389.571014,387.509369 390.390594,378.573090 
	C391.908051,362.027344 393.500275,345.488373 394.979980,328.939301 
	C396.134399,316.028381 397.123352,303.102783 398.261810,290.190399 
	C399.808502,272.647064 401.441467,255.111343 403.010925,237.570007 
	C404.136505,224.989929 405.197449,212.404053 406.325287,199.824173 
	C407.868347,182.613312 409.437653,165.404770 411.014404,148.196945 
	C412.196991,135.290985 413.430725,122.389717 414.601685,109.482719 
	C415.757782,96.739182 416.826385,83.987610 418.014099,71.247078 
	C418.369293,67.436943 417.064911,65.929092 413.018280,65.937378 
	C362.693787,66.040428 312.368958,66.040367 262.044464,65.936699 
	C258.032867,65.928436 256.896606,67.387810 256.938385,71.207695 
	C257.078735,84.036514 256.938629,96.868408 256.071472,109.592186 
M161.957916,134.455673 
	C154.313034,141.940353 146.668152,149.425034 138.207260,157.708633 
	C154.422180,157.708633 169.130371,157.708633 183.810455,157.708633 
	C183.810455,142.767136 183.810455,128.109863 183.810455,113.356293 
	C183.282852,113.497070 183.098221,113.489723 183.008209,113.578415 
	C176.136688,120.350479 169.272598,127.130096 161.957916,134.455673 
z"/>
<path fill="#FEFEFF" opacity="1.000000" stroke="none" 
	d="
M257.075714,388.874664 
	C240.370041,374.158600 234.462326,352.334442 242.006653,333.040192 
	C244.847473,325.774963 250.090317,320.552765 257.095245,316.075134 
	C267.665100,310.060638 278.649445,308.434265 289.877533,308.145538 
	C296.636169,307.971802 299.966614,311.692383 299.687164,318.467499 
	C299.460724,323.957153 299.139008,329.443146 298.829468,334.929077 
	C298.228088,345.587250 296.153290,347.614136 285.589111,347.937012 
	C284.591064,347.967529 283.466827,347.757996 282.629120,348.148712 
	C281.614838,348.621735 280.843292,349.615234 279.966705,350.383514 
	C280.932526,350.988617 281.889526,352.097565 282.865570,352.114594 
	C288.023254,352.204498 293.200500,352.230591 298.342438,351.871307 
	C303.671295,351.498901 307.931885,348.837372 308.479950,343.274323 
	C309.841949,329.448425 310.653961,315.568359 311.742554,300.962799 
	C308.473541,301.271362 306.708710,301.388794 304.957245,301.611481 
	C295.324127,302.836182 285.782898,302.103973 277.195099,297.590363 
	C270.195801,293.911713 263.897186,288.899811 257.287903,284.479065 
	C256.050415,283.178314 254.812881,281.877563 253.014435,279.987213 
	C251.425049,283.532562 250.129242,286.493561 248.776733,289.428436 
	C240.672409,307.014221 230.574875,313.092682 211.295227,311.735291 
	C196.273941,310.677704 181.797012,307.288635 167.757828,301.718658 
	C156.468369,297.239655 149.299072,289.967987 146.042786,277.812561 
	C137.070923,244.321533 132.947128,210.321426 132.867935,174.981766 
	C134.945587,174.981766 136.694565,174.981766 138.443527,174.981766 
	C154.926132,174.981766 171.408752,174.981964 187.891357,174.981674 
	C199.317749,174.981476 201.371582,172.889343 201.372955,161.237015 
	C201.374878,145.087387 201.373474,128.937759 201.373505,112.788124 
	C201.373505,111.007515 201.373505,109.226913 201.373505,106.782310 
	C220.023270,108.418999 238.232407,104.334023 256.715576,109.866249 
	C266.105469,113.906174 272.735260,120.024551 276.961029,128.515213 
	C278.597504,131.803299 280.783417,132.825745 284.330414,133.141922 
	C303.730225,134.871170 323.122467,136.731079 342.477020,138.904541 
	C352.619110,140.043457 360.046326,145.691544 362.969513,155.493103 
	C365.661499,164.519592 368.407837,173.889328 368.745575,183.194412 
	C370.007996,217.974243 370.881592,252.792206 370.726807,287.590668 
	C370.629791,309.402435 368.057800,331.161591 360.842102,352.015625 
	C354.931305,369.098145 345.913483,384.286591 328.197845,390.835175 
	C304.515289,399.589447 280.464508,400.897400 257.075714,388.874664 
M320.110199,216.337479 
	C311.748016,209.509155 302.466064,207.947311 292.674591,212.449463 
	C283.481598,216.676437 278.471619,224.195938 277.994965,234.398376 
	C277.716858,240.351044 281.018707,243.865509 286.909790,243.928299 
	C297.870911,244.045135 308.835236,244.053238 319.796112,243.924835 
	C325.808716,243.854416 329.258270,239.993240 328.819550,233.913300 
	C328.335052,227.199310 325.628784,221.443604 320.110199,216.337479 
z"/>
<path fill="#4851C7" opacity="1.000000" stroke="none" 
	d="
M257.052948,389.350555 
	C280.464508,400.897400 304.515289,399.589447 328.197845,390.835175 
	C345.913483,384.286591 354.931305,369.098145 360.842102,352.015625 
	C368.057800,331.161591 370.629791,309.402435 370.726807,287.590668 
	C370.881592,252.792206 370.007996,217.974243 368.745575,183.194412 
	C368.407837,173.889328 365.661499,164.519592 362.969513,155.493103 
	C360.046326,145.691544 352.619110,140.043457 342.477020,138.904541 
	C323.122467,136.731079 303.730225,134.871170 284.330414,133.141922 
	C280.783417,132.825745 278.597504,131.803299 276.961029,128.515213 
	C272.735260,120.024551 266.105469,113.906174 257.132751,109.919716 
	C256.938629,96.868408 257.078735,84.036514 256.938385,71.207695 
	C256.896606,67.387810 258.032867,65.928436 262.044464,65.936699 
	C312.368958,66.040367 362.693787,66.040428 413.018280,65.937378 
	C417.064911,65.929092 418.369293,67.436943 418.014099,71.247078 
	C416.826385,83.987610 415.757782,96.739182 414.601685,109.482719 
	C413.430725,122.389717 412.196991,135.290985 411.014404,148.196945 
	C409.437653,165.404770 407.868347,182.613312 406.325287,199.824173 
	C405.197449,212.404053 404.136505,224.989929 403.010925,237.570007 
	C401.441467,255.111343 399.808502,272.647064 398.261810,290.190399 
	C397.123352,303.102783 396.134399,316.028381 394.979980,328.939301 
	C393.500275,345.488373 391.908051,362.027344 390.390594,378.573090 
	C389.571014,387.509369 388.595947,396.439514 388.120148,405.395203 
	C387.930145,408.971802 386.798706,410.788361 383.308685,411.748901 
	C343.494263,422.706696 303.714142,433.788910 263.909821,444.783630 
	C257.073883,446.671814 257.005432,446.537689 257.005310,439.317780 
	C257.005005,422.820679 257.020874,406.323547 257.052948,389.350555 
z"/>
<path fill="#4D56C9" opacity="1.000000" stroke="none" 
	d="
M257.224579,284.979095 
	C263.897186,288.899811 270.195801,293.911713 277.195099,297.590363 
	C285.782898,302.103973 295.324127,302.836182 304.957245,301.611481 
	C306.708710,301.388794 308.473541,301.271362 311.742554,300.962799 
	C310.653961,315.568359 309.841949,329.448425 308.479950,343.274323 
	C307.931885,348.837372 303.671295,351.498901 298.342438,351.871307 
	C293.200500,352.230591 288.023254,352.204498 282.865570,352.114594 
	C281.889526,352.097565 280.932526,350.988617 279.966705,350.383514 
	C280.843292,349.615234 281.614838,348.621735 282.629120,348.148712 
	C283.466827,347.757996 284.591064,347.967529 285.589111,347.937012 
	C296.153290,347.614136 298.228088,345.587250 298.829468,334.929077 
	C299.139008,329.443146 299.460724,323.957153 299.687164,318.467499 
	C299.966614,311.692383 296.636169,307.971802 289.877533,308.145538 
	C278.649445,308.434265 267.665100,310.060638 257.341125,315.841187 
	C257.046295,305.756805 257.103790,295.617981 257.224579,284.979095 
z"/>
<path fill="#FEFEFE" opacity="1.000000" stroke="none" 
	d="
M162.182922,134.182404 
	C169.272598,127.130096 176.136688,120.350479 183.008209,113.578415 
	C183.098221,113.489723 183.282852,113.497070 183.810455,113.356293 
	C183.810455,128.109863 183.810455,142.767136 183.810455,157.708633 
	C169.130371,157.708633 154.422180,157.708633 138.207260,157.708633 
	C146.668152,149.425034 154.313034,141.940353 162.182922,134.182404 
z"/>
<path fill="#4A53C8" opacity="1.000000" stroke="none" 
	d="
M320.372559,216.587616 
	C325.628784,221.443604 328.335052,227.199310 328.819550,233.913300 
	C329.258270,239.993240 325.808716,243.854416 319.796112,243.924835 
	C308.835236,244.053238 297.870911,244.045135 286.909790,243.928299 
	C281.018707,243.865509 277.716858,240.351044 277.994965,234.398376 
	C278.471619,224.195938 283.481598,216.676437 292.674591,212.449463 
	C302.466064,207.947311 311.748016,209.509155 320.372559,216.587616 
z"/>
</svg>